<svg width="40" height="25" viewBox="0 0 40 25" fill="none" xmlns="http://www.w3.org/2000/svg">
<ellipse cx="3.60757" cy="21.1168" rx="3.60757" ry="3.59628" fill="white"/>
<path fill-rule="evenodd" clip-rule="evenodd" d="M6.03964 15.7828L18.2583 1.68825C19.3267 0.455887 21.2116 0.375799 22.3806 1.51309C23.1265 2.23875 23.4153 3.31453 23.1331 4.31619L20.6085 13.2768C20.44 13.8749 21.2009 14.2851 21.6079 13.8155L32.1254 1.68339C33.1852 0.460832 35.0612 0.39841 36.2 1.54781C36.9004 2.25479 37.1694 3.28231 36.9053 4.24181L33.8257 15.4271C33.667 16.0037 34.3772 16.4157 34.799 15.9917L36.4735 14.3081C37.2971 13.4801 38.6432 13.5008 39.441 14.3536C40.1903 15.1547 40.1811 16.4022 39.4202 17.1922L33.1306 23.7223C31.9669 24.9305 30.0368 24.9444 28.8559 23.7529C28.106 22.9964 27.8155 21.898 28.0934 20.8697L30.4961 11.9773C30.658 11.3782 29.8946 10.9759 29.492 11.4481L19.1716 23.5499C18.0793 24.8308 16.1275 24.9097 14.9354 23.7213C14.1975 22.9858 13.9131 21.9099 14.1909 20.9058L16.6162 12.1418C16.7818 11.5433 16.02 11.1365 15.6148 11.607L8.88887 19.4165C8.43501 17.8772 7.3272 16.6168 5.88583 15.9548L6.03964 15.7828Z" fill="#FB6E1E"/>
</svg>
